<mxfile host="Electron" agent="Mozilla/5.0 (Windows NT 10.0; Win64; x64) AppleWebKit/537.36 (KHTML, like Gecko) draw.io/24.7.17 Chrome/128.0.6613.36 Electron/32.0.1 Safari/537.36" version="24.7.17">
  <diagram name="第 1 页" id="eTv8WugUlaQk2r1hdKy8">
    <mxGraphModel dx="1562" dy="909" grid="1" gridSize="10" guides="1" tooltips="1" connect="1" arrows="1" fold="1" page="1" pageScale="1" pageWidth="1169" pageHeight="827" math="0" shadow="0">
      <root>
        <mxCell id="0" />
        <mxCell id="1" parent="0" />
        <mxCell id="5GMZJ9ENTO9qW2mHocNx-1" value="" style="whiteSpace=wrap;html=1;aspect=fixed;movable=0;resizable=0;rotatable=0;deletable=0;editable=0;locked=1;connectable=0;" parent="1" vertex="1">
          <mxGeometry x="80" y="80" width="720" height="720" as="geometry" />
        </mxCell>
        <mxCell id="5GMZJ9ENTO9qW2mHocNx-2" value="" style="shape=waypoint;sketch=0;fillStyle=solid;size=6;pointerEvents=1;points=[];fillColor=none;resizable=0;rotatable=0;perimeter=centerPerimeter;snapToPoint=1;perimeterSpacing=4;strokeWidth=10;strokeColor=#FF3333;" parent="1" vertex="1">
          <mxGeometry x="70" y="70" width="20" height="20" as="geometry" />
        </mxCell>
        <mxCell id="5GMZJ9ENTO9qW2mHocNx-12" value="" style="ellipse;whiteSpace=wrap;html=1;aspect=fixed;fillColor=#fff2cc;strokeColor=#d6b656;" parent="1" vertex="1">
          <mxGeometry x="200" y="120" width="130" height="130" as="geometry" />
        </mxCell>
        <mxCell id="5GMZJ9ENTO9qW2mHocNx-9" value="" style="shape=waypoint;sketch=0;fillStyle=solid;size=6;pointerEvents=1;points=[];fillColor=none;resizable=0;rotatable=0;perimeter=centerPerimeter;snapToPoint=1;perimeterSpacing=4;strokeWidth=10;strokeColor=#00CC00;fontColor=#FFFFFF;" parent="1" vertex="1">
          <mxGeometry x="790" y="790" width="20" height="20" as="geometry" />
        </mxCell>
        <mxCell id="5GMZJ9ENTO9qW2mHocNx-3" value="" style="shape=waypoint;sketch=0;fillStyle=solid;size=6;pointerEvents=1;points=[];fillColor=none;resizable=0;rotatable=0;perimeter=centerPerimeter;snapToPoint=1;perimeterSpacing=4;strokeWidth=10;strokeColor=#3399FF;fontColor=#FFFFFF;" parent="1" vertex="1">
          <mxGeometry x="280" y="150" width="20" height="20" as="geometry" />
        </mxCell>
        <mxCell id="5GMZJ9ENTO9qW2mHocNx-15" value="" style="shape=waypoint;sketch=0;fillStyle=solid;size=6;pointerEvents=1;points=[];fillColor=none;resizable=0;rotatable=0;perimeter=centerPerimeter;snapToPoint=1;perimeterSpacing=4;strokeWidth=10;strokeColor=#3399FF;fontColor=#FFFFFF;" parent="1" vertex="1">
          <mxGeometry x="250" y="210" width="20" height="20" as="geometry" />
        </mxCell>
        <mxCell id="5GMZJ9ENTO9qW2mHocNx-16" value="" style="ellipse;whiteSpace=wrap;html=1;aspect=fixed;fillColor=#e1d5e7;strokeColor=#9673a6;" parent="1" vertex="1">
          <mxGeometry x="500" y="230" width="130" height="130" as="geometry" />
        </mxCell>
        <mxCell id="5GMZJ9ENTO9qW2mHocNx-4" value="" style="shape=waypoint;sketch=0;fillStyle=solid;size=6;pointerEvents=1;points=[];fillColor=none;resizable=0;rotatable=0;perimeter=centerPerimeter;snapToPoint=1;perimeterSpacing=4;strokeWidth=10;strokeColor=#3399FF;fontColor=#FFFFFF;" parent="1" vertex="1">
          <mxGeometry x="540" y="260" width="20" height="20" as="geometry" />
        </mxCell>
        <mxCell id="5GMZJ9ENTO9qW2mHocNx-13" value="" style="shape=waypoint;sketch=0;fillStyle=solid;size=6;pointerEvents=1;points=[];fillColor=none;resizable=0;rotatable=0;perimeter=centerPerimeter;snapToPoint=1;perimeterSpacing=4;strokeWidth=10;strokeColor=#3399FF;fontColor=#FFFFFF;" parent="1" vertex="1">
          <mxGeometry x="520" y="300" width="20" height="20" as="geometry" />
        </mxCell>
        <mxCell id="5GMZJ9ENTO9qW2mHocNx-14" value="" style="shape=waypoint;sketch=0;fillStyle=solid;size=6;pointerEvents=1;points=[];fillColor=none;resizable=0;rotatable=0;perimeter=centerPerimeter;snapToPoint=1;perimeterSpacing=4;strokeWidth=10;strokeColor=#3399FF;fontColor=#FFFFFF;" parent="1" vertex="1">
          <mxGeometry x="575" y="290" width="20" height="20" as="geometry" />
        </mxCell>
        <mxCell id="5GMZJ9ENTO9qW2mHocNx-11" value="" style="endArrow=classic;html=1;rounded=0;exitX=1;exitY=0.5;exitDx=0;exitDy=0;entryX=0;entryY=0;entryDx=0;entryDy=0;strokeWidth=2;strokeColor=#FF8000;" parent="1" source="5GMZJ9ENTO9qW2mHocNx-12" target="5GMZJ9ENTO9qW2mHocNx-16" edge="1">
          <mxGeometry width="50" height="50" relative="1" as="geometry">
            <mxPoint x="300" y="170" as="sourcePoint" />
            <mxPoint x="540" y="260" as="targetPoint" />
          </mxGeometry>
        </mxCell>
        <mxCell id="5GMZJ9ENTO9qW2mHocNx-17" value="" style="endArrow=classic;html=1;rounded=0;exitX=0.574;exitY=0.646;exitDx=0;exitDy=0;exitPerimeter=0;entryX=0.028;entryY=0.339;entryDx=0;entryDy=0;entryPerimeter=0;strokeWidth=2;" parent="1" source="5GMZJ9ENTO9qW2mHocNx-2" target="5GMZJ9ENTO9qW2mHocNx-12" edge="1">
          <mxGeometry width="50" height="50" relative="1" as="geometry">
            <mxPoint x="90" y="110" as="sourcePoint" />
            <mxPoint x="276" y="159" as="targetPoint" />
          </mxGeometry>
        </mxCell>
        <mxCell id="5GMZJ9ENTO9qW2mHocNx-18" value="" style="ellipse;whiteSpace=wrap;html=1;aspect=fixed;fillColor=#f8cecc;strokeColor=#b85450;" parent="1" vertex="1">
          <mxGeometry x="230" y="391" width="130" height="130" as="geometry" />
        </mxCell>
        <mxCell id="5GMZJ9ENTO9qW2mHocNx-19" value="" style="shape=waypoint;sketch=0;fillStyle=solid;size=6;pointerEvents=1;points=[];fillColor=none;resizable=0;rotatable=0;perimeter=centerPerimeter;snapToPoint=1;perimeterSpacing=4;strokeWidth=10;strokeColor=#3399FF;fontColor=#FFFFFF;" parent="1" vertex="1">
          <mxGeometry x="270" y="421" width="20" height="20" as="geometry" />
        </mxCell>
        <mxCell id="5GMZJ9ENTO9qW2mHocNx-20" value="" style="shape=waypoint;sketch=0;fillStyle=solid;size=6;pointerEvents=1;points=[];fillColor=none;resizable=0;rotatable=0;perimeter=centerPerimeter;snapToPoint=1;perimeterSpacing=4;strokeWidth=10;strokeColor=#3399FF;fontColor=#FFFFFF;" parent="1" vertex="1">
          <mxGeometry x="250" y="461" width="20" height="20" as="geometry" />
        </mxCell>
        <mxCell id="5GMZJ9ENTO9qW2mHocNx-21" value="" style="shape=waypoint;sketch=0;fillStyle=solid;size=6;pointerEvents=1;points=[];fillColor=none;resizable=0;rotatable=0;perimeter=centerPerimeter;snapToPoint=1;perimeterSpacing=4;strokeWidth=10;strokeColor=#3399FF;fontColor=#FFFFFF;" parent="1" vertex="1">
          <mxGeometry x="305" y="451" width="20" height="20" as="geometry" />
        </mxCell>
        <mxCell id="5GMZJ9ENTO9qW2mHocNx-22" value="" style="endArrow=classic;html=1;rounded=0;exitX=0;exitY=1;exitDx=0;exitDy=0;entryX=1;entryY=0.5;entryDx=0;entryDy=0;strokeWidth=2;strokeColor=#FF8000;" parent="1" source="5GMZJ9ENTO9qW2mHocNx-16" target="5GMZJ9ENTO9qW2mHocNx-18" edge="1">
          <mxGeometry width="50" height="50" relative="1" as="geometry">
            <mxPoint x="50" y="380" as="sourcePoint" />
            <mxPoint x="270" y="421" as="targetPoint" />
          </mxGeometry>
        </mxCell>
        <mxCell id="5GMZJ9ENTO9qW2mHocNx-23" value="" style="shape=waypoint;sketch=0;fillStyle=solid;size=6;pointerEvents=1;points=[];fillColor=none;resizable=0;rotatable=0;perimeter=centerPerimeter;snapToPoint=1;perimeterSpacing=4;strokeWidth=10;strokeColor=#3399FF;fontColor=#FFFFFF;" parent="1" vertex="1">
          <mxGeometry x="220" y="160" width="20" height="20" as="geometry" />
        </mxCell>
        <mxCell id="5GMZJ9ENTO9qW2mHocNx-24" value="" style="shape=waypoint;sketch=0;fillStyle=solid;size=6;pointerEvents=1;points=[];fillColor=none;resizable=0;rotatable=0;perimeter=centerPerimeter;snapToPoint=1;perimeterSpacing=4;strokeWidth=10;strokeColor=#3399FF;fontColor=#FFFFFF;" parent="1" vertex="1">
          <mxGeometry x="280" y="190" width="20" height="20" as="geometry" />
        </mxCell>
        <mxCell id="5GMZJ9ENTO9qW2mHocNx-25" value="" style="ellipse;whiteSpace=wrap;html=1;aspect=fixed;fillColor=#d5e8d4;strokeColor=#82b366;" parent="1" vertex="1">
          <mxGeometry x="510" y="570" width="130" height="130" as="geometry" />
        </mxCell>
        <mxCell id="5GMZJ9ENTO9qW2mHocNx-26" value="" style="shape=waypoint;sketch=0;fillStyle=solid;size=6;pointerEvents=1;points=[];fillColor=none;resizable=0;rotatable=0;perimeter=centerPerimeter;snapToPoint=1;perimeterSpacing=4;strokeWidth=10;strokeColor=#3399FF;fontColor=#FFFFFF;" parent="1" vertex="1">
          <mxGeometry x="550" y="600" width="20" height="20" as="geometry" />
        </mxCell>
        <mxCell id="5GMZJ9ENTO9qW2mHocNx-27" value="" style="shape=waypoint;sketch=0;fillStyle=solid;size=6;pointerEvents=1;points=[];fillColor=none;resizable=0;rotatable=0;perimeter=centerPerimeter;snapToPoint=1;perimeterSpacing=4;strokeWidth=10;strokeColor=#3399FF;fontColor=#FFFFFF;" parent="1" vertex="1">
          <mxGeometry x="530" y="640" width="20" height="20" as="geometry" />
        </mxCell>
        <mxCell id="5GMZJ9ENTO9qW2mHocNx-29" value="" style="endArrow=classic;html=1;rounded=0;exitX=1;exitY=1;exitDx=0;exitDy=0;entryX=0;entryY=0;entryDx=0;entryDy=0;strokeWidth=2;strokeColor=#FF8000;" parent="1" source="5GMZJ9ENTO9qW2mHocNx-18" target="5GMZJ9ENTO9qW2mHocNx-25" edge="1">
          <mxGeometry width="50" height="50" relative="1" as="geometry">
            <mxPoint x="815" y="580" as="sourcePoint" />
            <mxPoint x="560" y="655" as="targetPoint" />
          </mxGeometry>
        </mxCell>
        <mxCell id="5GMZJ9ENTO9qW2mHocNx-30" value="" style="endArrow=classic;html=1;rounded=0;exitX=1;exitY=1;exitDx=0;exitDy=0;entryX=0.199;entryY=0.254;entryDx=0;entryDy=0;entryPerimeter=0;strokeWidth=2;" parent="1" source="5GMZJ9ENTO9qW2mHocNx-25" target="5GMZJ9ENTO9qW2mHocNx-9" edge="1">
          <mxGeometry width="50" height="50" relative="1" as="geometry">
            <mxPoint x="604" y="690" as="sourcePoint" />
            <mxPoint x="790" y="781" as="targetPoint" />
          </mxGeometry>
        </mxCell>
        <mxCell id="xfBwIZMvxVg8qTzDTeeY-1" value="" style="endArrow=classic;html=1;rounded=0;exitX=0.5;exitY=1;exitDx=0;exitDy=0;entryX=0.5;entryY=0;entryDx=0;entryDy=0;strokeWidth=2;strokeColor=#FF33FF;" edge="1" parent="1" source="5GMZJ9ENTO9qW2mHocNx-12" target="5GMZJ9ENTO9qW2mHocNx-18">
          <mxGeometry width="50" height="50" relative="1" as="geometry">
            <mxPoint x="340" y="195" as="sourcePoint" />
            <mxPoint x="529" y="259" as="targetPoint" />
          </mxGeometry>
        </mxCell>
        <mxCell id="xfBwIZMvxVg8qTzDTeeY-2" value="" style="endArrow=classic;html=1;rounded=0;entryX=0;entryY=0.5;entryDx=0;entryDy=0;strokeWidth=2;strokeColor=#FF33FF;exitX=1;exitY=0;exitDx=0;exitDy=0;" edge="1" parent="1" source="5GMZJ9ENTO9qW2mHocNx-18" target="5GMZJ9ENTO9qW2mHocNx-16">
          <mxGeometry width="50" height="50" relative="1" as="geometry">
            <mxPoint x="500" y="450" as="sourcePoint" />
            <mxPoint x="305" y="401" as="targetPoint" />
          </mxGeometry>
        </mxCell>
        <mxCell id="xfBwIZMvxVg8qTzDTeeY-3" value="" style="endArrow=classic;html=1;rounded=0;exitX=0.5;exitY=1;exitDx=0;exitDy=0;entryX=0.5;entryY=0;entryDx=0;entryDy=0;strokeWidth=2;strokeColor=#FF33FF;" edge="1" parent="1" source="5GMZJ9ENTO9qW2mHocNx-16" target="5GMZJ9ENTO9qW2mHocNx-25">
          <mxGeometry width="50" height="50" relative="1" as="geometry">
            <mxPoint x="285" y="270" as="sourcePoint" />
            <mxPoint x="315" y="411" as="targetPoint" />
          </mxGeometry>
        </mxCell>
      </root>
    </mxGraphModel>
  </diagram>
</mxfile>
